<?xml version="1.0" encoding="UTF-8"?>
<svg id="Layer_1" data-name="Layer 1" xmlns="http://www.w3.org/2000/svg" xmlns:xlink="http://www.w3.org/1999/xlink" viewBox="0 0 374.21 340.6">
  <defs>
    <style>
      .cls-1 {
        fill: #0559f9;
      }

      .cls-1, .cls-2, .cls-3, .cls-4, .cls-5 {
        stroke-width: 0px;
      }

      .cls-2 {
        fill: url(#linear-gradient);
      }

      .cls-3 {
        fill: #48b5ff;
      }

      .cls-4 {
        fill: url(#linear-gradient-2);
      }

      .cls-5 {
        fill: url(#linear-gradient-3);
      }
    </style>
    <linearGradient id="linear-gradient" x1="249.45" y1="51.53" x2="194.64" y2="256.29" gradientTransform="translate(349.68) rotate(-180) scale(1 -1)" gradientUnits="userSpaceOnUse">
      <stop offset=".18" stop-color="#35d18e"/>
      <stop offset="1" stop-color="#009dff"/>
    </linearGradient>
    <linearGradient id="linear-gradient-2" x1="59.91" y1="169.8" x2="249.98" y2="169.8" gradientTransform="translate(349.68) rotate(-180) scale(1 -1)" gradientUnits="userSpaceOnUse">
      <stop offset="0" stop-color="#1461fc"/>
      <stop offset=".85" stop-color="#1498fc"/>
    </linearGradient>
    <linearGradient id="linear-gradient-3" x1="61.36" y1="264.69" x2="156.1" y2="124.27" gradientTransform="translate(349.68) rotate(-180) scale(1 -1)" gradientUnits="userSpaceOnUse">
      <stop offset=".03" stop-color="#35d1ff"/>
      <stop offset="1" stop-color="#fff"/>
    </linearGradient>
  </defs>
  <path class="cls-2" d="M60.25,285.37c49.33-5.48,98.65-11,147.97-16.52,9.36-1.48,15.82-9.86,16.05-19.14,0-53.27,0-106.55,0-159.82-.24-9.28-6.69-17.66-16.05-19.14-49.32-5.52-98.64-11.04-147.97-16.52-10.46-.5-16.13,9.91-16.05,19.15,0,64.28,0,128.56,0,192.84-.08,9.24,5.59,19.65,16.05,19.15Z"/>
  <path class="cls-1" d="M90.47,304.92c60.13-8.05,120.26-16.15,180.39-24.23,10.02-1.71,17.57-10.26,17.95-20.42,0-60.31,0-120.62,0-180.93-.38-10.17-7.94-18.72-17.95-20.42-60.13-8.08-120.26-16.19-180.39-24.23-11.47-.92-18.05,10.23-17.95,20.44,0,76.46,0,152.92,0,229.37-.1,10.2,6.48,21.36,17.95,20.44Z"/>
  <path class="cls-3" d="M122.71,314.7c61.66-9.16,123.32-18.25,184.97-27.46,12.51-1.29,21.64-13.46,23.02-25.18,0-61.5,0-123.01,0-184.51-1.38-11.72-10.51-23.9-23.02-25.19-61.65-9.21-123.32-18.3-184.97-27.46-13.16-.26-24.19,11.83-23.02,25.09,0,79.87,0,159.75,0,239.62-1.17,13.25,9.86,25.35,23.02,25.09Z"/>
  <path class="cls-4" d="M288.81,79.33c1.27,59.62,1.27,121.31,0,180.93-.21,10.05-8.05,18.89-17.95,20.42-55.18,8.54-112.02,15.11-168.04,22.58-2.08-4.1-3.16-8.92-3.13-13.67.5-79.86.5-159.76,0-239.62-.03-4.75,1.05-9.57,3.13-13.67,56.02,7.47,112.86,14.05,168.04,22.59,9.9,1.53,17.74,10.38,17.95,20.42Z"/>
  <path class="cls-5" d="M191.61,90.66c0,31.81,0,63.63,0,95.44.1,11.89,9.56,21.98,21.43,21.73,11.74-.24,21.26-10.19,21.43-22.07,0-29.82,0-59.63,0-89.45,15.47,1.82,30.94,3.61,46.41,5.38,0,26.69,0,53.38,0,80.07,0,36.79-31.33,68.24-67.84,69.75h0c-38.54,1.61-67.87-31.54-67.84-68.92,0-32.41,0-64.83,0-97.24,15.47,1.8,30.94,3.57,46.41,5.31Z"/>
</svg>